<?xml version="1.0" standalone="no"?>
<!DOCTYPE svg PUBLIC "-//W3C//DTD SVG 20010904//EN"
 "http://www.w3.org/TR/2001/REC-SVG-20010904/DTD/svg10.dtd">
<svg version="1.0" xmlns="http://www.w3.org/2000/svg"
 width="1105.000000pt" height="1105.000000pt" viewBox="0 0 1105.000000 1105.000000"
 preserveAspectRatio="xMidYMid meet">
<metadata>
Created by potrace 1.11, written by Peter Selinger 2001-2013
</metadata>
<g transform="translate(0.000000,1105.000000) scale(0.100000,-0.100000)"
fill="#000000" stroke="none">
<path d="M5170 10984 c-557 -48 -972 -132 -1430 -289 -1149 -395 -2131 -1157
-2794 -2167 -511 -780 -814 -1671 -886 -2607 -13 -174 -13 -618 0 -792 137
-1783 1115 -3375 2635 -4286 697 -419 1443 -667 2275 -760 237 -26 873 -26
1110 0 1459 162 2742 845 3660 1947 726 873 1162 1954 1250 3099 13 174 13
618 0 792 -137 1783 -1115 3375 -2635 4286 -693 416 -1440 666 -2265 759 -137
15 -799 28 -920 18z m960 -508 c823 -90 1571 -360 2245 -809 1160 -774 1946
-1998 2160 -3363 61 -390 77 -862 41 -1224 -113 -1145 -614 -2184 -1442 -2989
-542 -527 -1182 -915 -1909 -1156 -144 -48 -509 -145 -545 -145 -14 0 -26 -14
-42 -48 -28 -59 -99 -131 -159 -160 -118 -57 -249 -47 -644 48 -384 92 -482
102 -795 76 -248 -20 -274 -17 -503 68 -67 25 -129 39 -191 46 -200 21 -614
170 -986 356 -951 476 -1720 1237 -2200 2179 -492 967 -640 2077 -420 3160
380 1878 1823 3381 3684 3840 269 66 564 114 836 135 171 13 699 4 870 -14z"/>
<path d="M5280 10369 c-626 -45 -1220 -204 -1776 -474 -518 -251 -914 -533
-1320 -939 -263 -264 -436 -476 -628 -768 -770 -1176 -995 -2631 -611 -3958
308 -1063 967 -1971 1895 -2612 252 -174 655 -388 945 -501 157 -62 390 -140
449 -151 60 -11 41 13 -46 59 -125 66 -145 95 -64 95 51 0 94 -21 296 -145
335 -205 463 -237 726 -180 209 45 304 36 704 -71 319 -85 497 -105 585 -65
40 18 115 91 115 112 0 7 -36 9 -117 4 -222 -13 -397 18 -608 107 -328 138
-369 150 -530 168 -113 12 -175 26 -175 40 0 19 47 33 204 61 283 50 390 90
592 221 190 124 266 155 499 203 99 20 211 52 295 83 131 48 135 50 138 80 13
125 -197 215 -463 198 -126 -8 -176 -21 -183 -48 -7 -27 -35 -22 -196 36 -188
69 -242 80 -386 79 -132 0 -290 -20 -480 -60 -204 -42 -391 -80 -540 -108 -80
-15 -191 -42 -247 -61 -177 -58 -540 -90 -761 -65 l-102 11 -57 56 c-53 53
-54 57 -27 51 156 -34 448 -56 533 -40 l45 8 -100 43 c-216 92 -552 289 -779
457 -267 198 -536 457 -754 727 -407 507 -695 1131 -815 1768 -52 278 -60 371
-61 735 0 355 8 458 56 730 227 1281 1065 2397 2239 2984 421 210 832 335
1324 403 143 20 202 23 526 23 390 -1 464 -6 757 -61 1687 -311 3024 -1654
3327 -3344 39 -218 56 -391 63 -635 27 -1023 -325 -2006 -1001 -2791 -124
-145 -375 -388 -522 -506 -192 -154 -298 -224 -474 -314 -92 -46 -209 -111
-261 -144 -127 -80 -182 -108 -329 -168 -258 -104 -542 -186 -820 -237 -116
-21 -161 -34 -226 -66 -45 -22 -89 -48 -98 -57 -15 -17 -12 -18 52 -14 l67 4
-54 -36 c-45 -31 -70 -39 -155 -53 -141 -22 -336 -108 -336 -148 0 -56 253
-167 490 -215 213 -43 393 -26 794 79 1439 376 2637 1402 3211 2751 590 1386
466 3017 -330 4329 -204 337 -433 629 -715 911 -393 394 -805 690 -1295 930
-532 261 -1051 410 -1655 475 -174 19 -654 27 -830 14z m290 -8509 c166 -21
305 -67 396 -132 59 -42 80 -80 58 -102 -13 -14 -19 -14 -52 4 -45 24 -122 26
-183 5 -101 -36 -207 -58 -279 -58 -62 0 -94 7 -186 41 -60 22 -180 54 -265
71 -197 40 -231 50 -227 64 7 21 73 47 184 72 190 43 388 55 554 35z m995 -30
c89 -13 136 -26 160 -44 17 -12 18 -17 7 -40 -16 -37 -72 -35 -144 3 -30 16
-81 37 -114 46 -68 20 -68 20 -59 34 8 14 59 14 150 1z"/>
<path d="M5325 9544 c-16 -2 -79 -9 -140 -15 -645 -64 -1288 -301 -1848 -682
-364 -248 -739 -616 -997 -977 -166 -233 -355 -573 -454 -820 -270 -669 -358
-1392 -255 -2095 159 -1096 806 -2094 1757 -2709 207 -134 573 -323 687 -355
105 -29 300 -10 775 75 844 151 818 150 1092 59 75 -25 150 -45 166 -45 17 0
74 10 128 22 129 28 319 30 414 5 171 -47 280 -138 280 -236 l0 -31 96 35
c786 285 1488 840 1958 1550 543 821 760 1781 625 2765 -150 1088 -761 2090
-1666 2727 -546 385 -1154 619 -1843 709 -118 15 -695 29 -775 18z m454 -323
c75 -39 132 -132 131 -213 -1 -20 -13 -59 -34 -109 -6 -13 4 -18 54 -28 420
-83 790 -417 924 -832 64 -201 74 -475 23 -670 -98 -374 -329 -658 -674 -825
l-93 -45 0 -119 0 -120 -115 0 -115 0 0 -1325 0 -1325 65 0 65 0 0 240 0 240
139 0 140 0 20 -55 c12 -31 21 -60 21 -66 0 -6 15 -9 32 -7 30 3 34 7 51 64
l18 61 286 6 c158 4 288 5 290 3 2 -1 6 -107 10 -234 l6 -232 -196 0 -197 0 0
-70 0 -70 195 0 195 0 0 -190 0 -190 -190 0 -190 0 0 -70 0 -70 189 0 188 0 7
-92 c3 -50 6 -153 6 -230 l0 -138 -280 -1 c-154 -1 -285 -2 -292 -3 -6 -1 -21
27 -32 62 -19 59 -22 62 -51 62 -29 0 -32 -3 -51 -63 l-20 -62 -134 -3 c-100
-2 -135 1 -142 10 -4 7 -8 113 -8 236 l0 222 -70 0 -69 0 -3 -82 -3 -83 -37
-3 c-51 -4 -50 -30 2 -82 109 -109 78 -294 -61 -364 -87 -43 -176 -31 -250 33
-23 19 -50 53 -60 75 -37 82 -17 199 45 255 16 15 26 35 26 53 0 24 -4 28 -30
28 l-30 0 0 1730 0 1730 -120 0 -120 0 0 123 0 122 -85 39 c-247 113 -472 334
-590 581 -46 96 -86 218 -106 325 -19 97 -16 338 4 443 96 485 465 866 943
973 l81 18 -20 44 c-28 64 -21 155 16 211 67 100 191 135 296 82z"/>
<path d="M5623 9136 c-89 -40 -98 -172 -16 -232 16 -12 36 -40 45 -62 l16 -40
-72 -7 c-286 -26 -526 -135 -721 -330 -437 -437 -446 -1139 -21 -1584 179
-187 398 -300 671 -347 l50 -9 3 -47 3 -48 -120 0 -121 0 0 -35 0 -35 120 0
120 0 0 -1730 0 -1730 84 0 c46 0 91 3 100 6 15 6 16 167 16 1730 l0 1724 115
0 115 0 0 35 0 35 -115 0 -115 0 0 49 0 48 78 13 c92 14 207 50 299 91 157 70
343 225 445 369 98 138 173 324 199 494 17 105 6 343 -20 439 -102 386 -376
682 -747 806 -81 27 -142 40 -277 57 l-49 6 7 36 c4 22 22 53 45 78 50 54 61
104 34 153 -37 67 -108 95 -171 67z m42 -25 c-35 -20 -61 -56 -71 -95 -9 -39
-24 -31 -24 12 0 55 46 102 100 102 25 0 25 0 -5 -19z m-90 -937 l0 -409 -413
-3 -413 -2 7 37 c63 351 292 631 603 739 74 26 189 53 206 50 6 -2 10 -147 10
-412z m280 401 c114 -18 278 -91 382 -170 182 -136 331 -382 359 -593 l7 -52
-412 0 -411 0 0 416 c0 391 1 415 18 410 9 -3 35 -8 57 -11z m-275 -1425 l0
-410 -22 0 c-13 0 -60 9 -106 20 -336 80 -606 358 -683 700 -10 47 -19 88 -19
93 0 4 187 7 415 7 l415 0 0 -410z m1020 396 c0 -37 -33 -165 -59 -230 -117
-292 -362 -497 -678 -566 l-83 -18 0 414 0 414 410 0 c349 0 410 -2 410 -14z"/>
<path d="M5389 8441 c-159 -57 -313 -179 -408 -325 -45 -70 -90 -167 -105
-228 l-6 -28 305 0 305 0 0 305 c0 168 -3 305 -7 304 -5 0 -42 -12 -84 -28z"/>
<path d="M5880 8166 l0 -306 300 0 c346 0 319 -12 267 115 -94 232 -298 415
-544 490 l-23 6 0 -305z"/>
<path d="M4875 7438 c72 -238 237 -431 457 -532 40 -19 90 -37 111 -41 l37 -7
0 301 0 301 -306 0 -305 0 6 -22z"/>
<path d="M5880 7160 c0 -267 2 -300 16 -300 30 0 166 60 232 104 90 58 151
114 208 189 50 65 130 223 140 276 l7 31 -302 0 -301 0 0 -300z"/>
<path d="M6589 3993 l-85 -4 -20 -62 -20 -62 -100 -3 -99 -3 -23 66 -24 65
-54 0 -55 0 3 -235 3 -235 -65 0 c-36 0 -89 -3 -117 -6 l-53 -7 0 -218 0 -219
120 0 120 0 0 -235 0 -236 57 3 57 3 20 63 20 62 101 0 101 0 20 -62 20 -63
52 0 c29 1 122 2 207 3 l155 2 0 130 0 130 -195 0 -195 0 0 170 0 170 190 0
190 0 0 90 0 90 -195 0 -195 0 0 170 0 170 195 0 196 0 -3 133 -3 132 -120 1
c-66 0 -159 -1 -206 -3z"/>
<path d="M5640 2755 c0 -38 -6 -51 -45 -95 -41 -46 -45 -56 -45 -100 0 -43 5
-56 33 -86 28 -31 41 -37 83 -41 60 -5 103 18 127 70 30 63 18 110 -44 167
-34 31 -42 46 -46 84 -5 43 -8 46 -34 46 -28 0 -29 -2 -29 -45z"/>
</g>
</svg>
