<?xml version="1.0" standalone="no"?>
<!DOCTYPE svg PUBLIC "-//W3C//DTD SVG 20010904//EN"
 "http://www.w3.org/TR/2001/REC-SVG-20010904/DTD/svg10.dtd">
<svg version="1.0" xmlns="http://www.w3.org/2000/svg"
 width="1200.000000pt" height="1200.000000pt" viewBox="0 0 1200.000000 1200.000000"
 preserveAspectRatio="xMidYMid meet">
<metadata>
Created by potrace 1.11, written by Peter Selinger 2001-2013
</metadata>
<g transform="translate(0.000000,1200.000000) scale(0.100000,-0.100000)"
fill="#000000" stroke="none">
<path d="M5759 11236 c-2 -2 -71 -9 -154 -15 -282 -21 -559 -63 -745 -111 -19
-5 -66 -16 -105 -25 -185 -43 -658 -198 -689 -226 -6 -5 -16 -9 -22 -9 -7 0
-51 -18 -98 -40 -47 -22 -109 -49 -138 -62 -56 -24 -180 -87 -263 -133 -27
-16 -72 -41 -100 -56 -114 -64 -155 -89 -330 -205 -61 -41 -202 -143 -280
-204 -32 -25 -70 -54 -85 -65 -29 -21 -119 -99 -209 -180 -154 -138 -475 -476
-556 -585 -11 -15 -40 -53 -65 -85 -132 -169 -317 -447 -429 -645 -65 -115
-229 -452 -261 -535 -8 -21 -76 -194 -90 -230 -30 -76 -130 -408 -158 -525
-41 -167 -55 -232 -64 -285 -5 -33 -14 -85 -19 -115 -24 -134 -54 -452 -46
-474 6 -14 244 -16 2481 -16 2247 0 2474 1 2480 16 3 9 6 1093 6 2409 0 2173
-1 2393 -16 2399 -18 7 -39 8 -45 2z"/>
<path d="M6395 11208 c-3 -7 -4 -1088 -3 -2403 l3 -2390 2369 -3 c1806 -1
2372 1 2383 10 10 8 12 20 7 37 -3 14 -10 73 -15 131 -17 194 -39 335 -94 595
-37 174 -114 442 -180 620 -20 55 -39 110 -42 123 -3 12 -9 25 -14 28 -5 3 -9
12 -9 20 0 20 -125 295 -203 446 -107 207 -268 477 -358 598 -14 19 -59 80
-99 135 -299 404 -738 838 -1115 1100 -31 22 -69 49 -84 61 -34 26 -263 173
-321 206 -25 14 -65 37 -90 51 -155 87 -222 122 -395 202 -136 63 -165 75
-177 75 -8 0 -18 4 -23 8 -18 15 -137 60 -285 107 -80 26 -154 51 -165 55 -11
5 -31 11 -45 14 -14 2 -74 18 -135 34 -118 31 -314 76 -380 87 -22 4 -62 11
-90 16 -27 5 -88 13 -135 18 -47 5 -96 12 -110 14 -14 3 -62 8 -108 12 -62 4
-84 2 -87 -7z"/>
<path d="M837 5834 c-4 -4 -4 -16 -2 -28 3 -12 12 -104 21 -206 26 -308 47
-455 94 -649 12 -47 26 -108 32 -136 6 -27 16 -70 23 -95 7 -25 18 -65 25 -90
7 -25 16 -54 20 -65 5 -11 11 -31 14 -45 5 -28 81 -249 100 -295 7 -16 19 -46
26 -65 7 -19 17 -39 22 -44 4 -6 8 -16 8 -23 0 -26 151 -349 230 -493 115
-207 227 -391 243 -398 4 -2 7 -8 7 -12 0 -5 20 -38 45 -72 25 -35 57 -81 72
-103 14 -22 44 -62 67 -90 23 -27 61 -75 84 -105 179 -233 454 -516 712 -732
65 -54 262 -208 310 -241 14 -9 43 -30 64 -45 21 -15 46 -32 55 -37 9 -6 50
-33 92 -61 145 -97 266 -167 469 -269 208 -105 289 -141 477 -214 180 -69 397
-139 558 -180 357 -89 730 -147 1000 -153 l110 -3 0 2475 0 2475 -2486 3
c-1367 1 -2489 -1 -2492 -4z"/>
<path d="M6397 5833 c-12 -11 -8 -4931 3 -4938 10 -6 85 1 280 26 135 17 461
79 526 99 17 6 37 10 46 10 8 0 41 8 74 19 32 10 95 28 139 41 110 31 313 98
351 115 17 8 71 30 120 49 173 67 506 230 647 317 43 27 81 49 83 49 8 0 226
143 294 192 36 26 85 62 110 80 72 52 207 160 311 249 101 86 404 386 483 478
140 164 255 306 296 366 14 20 36 51 50 70 68 92 211 312 244 375 16 30 37 66
46 80 20 28 210 403 210 413 0 4 15 39 33 79 19 40 44 100 56 133 13 33 34 85
47 116 13 31 24 63 24 71 0 8 4 18 8 24 5 5 14 27 20 49 7 22 23 75 37 119 14
43 25 87 25 97 0 10 4 20 9 23 4 3 11 20 15 38 3 18 13 58 21 88 9 30 20 73
24 95 20 90 33 154 48 235 8 47 20 105 25 130 21 106 51 403 52 525 l1 90
-2376 3 c-1307 1 -2379 -1 -2382 -5z"/>
<path d="M5958 263 c23 -2 61 -2 85 0 23 2 4 4 -43 4 -47 0 -66 -2 -42 -4z"/>
</g>
</svg>
