<?xml version="1.0" encoding="utf-8"?>
<!-- Generator: Adobe Illustrator 19.0.0, SVG Export Plug-In . SVG Version: 6.00 Build 0)  -->
<svg version="1.1" id="Camada_1" xmlns:svg="http://www.w3.org/2000/svg"
	 xmlns="http://www.w3.org/2000/svg" xmlns:xlink="http://www.w3.org/1999/xlink" x="0px" y="0px" viewBox="-88.4 -0.2 795.8 794.5"
	 style="enable-background:new -88.4 -0.2 795.8 794.5;" xml:space="preserve">
<style type="text/css">
	.st0{fill:none;stroke:#000000;stroke-width:9;}
</style>
<title>Simple ouroboros depiction (glyph &quot;oroboros&quot; from toa267 public domain Fnord-Podge font)</title>
<g>
	<path class="st0" d="M325.7,589.2l-11.6,0.3l0.2,7.5c0,2.2-0.8,2.5-2.6,3.8c-2.7,2.4-4.4,6-4.3,10c0.2,7.2,6.1,12.9,13.3,12.7
		c7.2-0.2,12.8-6.1,12.7-13.3c-0.1-4.2-2.2-7.9-5.3-10.2c-1.8-1.1-2.4-1.5-2.1-3.7L325.7,589.2L325.7,589.2z"/>
	<path class="st0" d="M413.1,503.3l-35.6,0.3l-3,9.3l-9.3,0.1l-3.2-9.3l-13.9,0.1l0.3,34.1l-17,0.2l0.4,39l17-0.2L349,611l13.9-0.1
		l3-9.3l9.3-0.1l3.2,9.3l35.6-0.3l-0.2-26.3l-27.9,0.3l-0.2-17l27.9-0.3l-0.1-6.4l-0.1-7.5l-0.1-6.4l-27.9,0.3l-0.2-17l27.9-0.3
		L413.1,503.3L413.1,503.3z"/>
	<path class="st0" d="M405.8,243c0-45.1-34.9-82-79.2-85.2c0.2-1.3,1-1.7,2.5-2.7c2.7-2.4,4.4-6,4.3-10c-0.2-7.2-6.2-12.9-13.3-12.7
		c-7.2,0.2-12.8,6.1-12.7,13.3c0.1,4.2,2.2,7.9,5.3,10.2c1.1,0.7,1.7,1.1,2,1.8c-44.5,2.9-79.8,39.9-79.8,85.2
		c0,43.5,32.5,79.4,74.5,84.7v0.7h-17v11.9h17v248.9h21.8V340.3h17v-11.9h-17v-0.7C373.3,322.4,405.8,286.5,405.8,243z M331.3,180.4
		c26.4,4.5,47.2,25.3,51.7,51.7h-51.7V180.4z M331.3,253.9H383c-4.5,26.4-25.3,47.2-51.7,51.7V253.9z M309.5,305.6
		c-26.4-4.5-47.2-25.3-51.7-51.7h51.7V305.6z M309.5,232.1h-51.7c4.5-26.4,25.3-47.2,51.7-51.7V232.1z"/>
</g>
<path d="M374,662l-0.7,2.2c13.3,2.2,12.5,6.6,19.9,6.6c2.2,0,3.7-1.5,3.7-3.7C396.8,665,388,662.8,374,662z M316.4,662
	c-3.7,0-7.4,0.7-14.8,3c-11.1,2.9-27.3,2.9-27.3,4.4c0,1.5,2.9,2.2,10.3,2.2c11.1,0.7,13.3,9.6,22.1,9.6c15.5,0,22.1-6.6,27.3-6.6
	l7.4,1.5l0.7-1.5C334.9,669.4,323.8,662,316.4,662z M291.3,669.5l10-2c0,3.3,2,6.7,3.3,8.6C298.6,676.2,294.6,670.9,291.3,669.5z
	 M313.3,675.5c0.7-3.3,0.7-6.7,0-10c5.3,1.3,8,3.3,11.3,5.3L313.3,675.5z M374,662l-0.7,2.2c13.3,2.2,12.5,6.6,19.9,6.6
	c2.2,0,3.7-1.5,3.7-3.7C396.8,665,388,662.8,374,662z M316.4,662c-3.7,0-7.4,0.7-14.8,3c-11.1,2.9-27.3,2.9-27.3,4.4
	c0,1.5,2.9,2.2,10.3,2.2c11.1,0.7,13.3,9.6,22.1,9.6c15.5,0,22.1-6.6,27.3-6.6l7.4,1.5l0.7-1.5C334.9,669.4,323.8,662,316.4,662z
	 M291.3,669.5l10-2c0,3.3,2,6.7,3.3,8.6C298.6,676.2,294.6,670.9,291.3,669.5z M313.3,675.5c0.7-3.3,0.7-6.7,0-10
	c5.3,1.3,8,3.3,11.3,5.3L313.3,675.5z M374,662l-0.7,2.2c13.3,2.2,12.5,6.6,19.9,6.6c2.2,0,3.7-1.5,3.7-3.7
	C396.8,665,388,662.8,374,662z M316.5,661.3c-6.8-1.1-12-1.2-13.2-1.2c-22.2-0.4-44.4,5.7-44.1,8.7c0.1,0.8,6.2,2.1,18.6,4.6
	c7.7,1.6,6.8,1.2,8.3,1.7c8.1,2.2,14.3,5.8,20.8,6.1c1.7,0.1,3.5,0,3.5,0c2.7-0.2,4.8-0.6,6.8-1.1c5.3-1.3,10.2-2.9,12.6-3.7
	c1.4-0.4,3.6-0.9,6.3-0.7c2.1,0.1,3.9,0.6,5.1,1c1.4,1.8,3.5,1.9,4.4,1.1c0.9-0.8,0.9-3-0.8-4.5c-0.3-0.4-0.9-1-1.7-1.7
	C341.4,670.2,334.5,664.1,316.5,661.3z M291.3,669.5l10-2c0,3.3,2,6.7,3.3,8.6C298.6,676.2,294.6,670.9,291.3,669.5z M313.3,675.5
	c0.7-3.3,0.7-6.7,0-10c5.3,1.3,8,3.3,11.3,5.3L313.3,675.5z"/>
<g>
	<path d="M316.1,38.6C118.3,38.6-42.3,199.2-42.3,397c0,155.5,104.7,292.4,256.6,336.9c3.6,0.7,5,1.4,8.6,1.4
		c12.9,0,23.7,9.3,38,9.3c7.2,0,25.1-2.1,32.3-2.1c21.5,0,53,12.9,74.5,12.9c9.3,0,20.1-7.2,22.9-17.2
		C556.3,704.5,674.5,561.9,674.5,397C674.5,199.2,514,38.6,316.1,38.6z M377.1,732.5c-25.8,4.3-61.6-11.5-61.6-16.5
		c0-3.6,15-8.6,17.9-10c174.2-22.6,301-159.8,305.3-308.9c3.8-130-86.4-240.7-182.7-291.3C434.1,94.3,384.4,68.9,318.3,70
		C159.6,72.6-3.5,226.2-6.4,397C-9,551.5,122.3,654.5,149.9,667.2c9.3,4.3,26.5,5,33.7,5s33-1.4,40.1-5c7.2-3.6,35.1-7.2,49.5-10.8
		s33.7-6.5,44.4-6.5c17.9,0,34.4,10.8,40.1,10v-1.4c0-2.1,6.4-3.6,19.3-3.6c14.3,0,29.4,5,28,16.5l-17.2,6.5
		c-14.3,4.3-20.8,3.6-27.9,6.4c-17.9,5.7-22.2,13.6-38.7,20.8c-16.5,7.2-40.9,7.2-40.9,10.8c0,2.1,10.8,2.9,17.9,3.6
		c17.9,2.1,35.8,16.5,57.3,18.6c14.3,1.4,17.9,0.7,28,0c-0.7,3.6-6.5,10.8-15.8,10.8c-22.9,0-51.6-13.6-71-13.6
		c-10.8,0-18.6,4.3-29.4,4.3c-15.8,0-33.7-12.9-48-21.5c-3.6-2.1-7.2-4.3-10.8-4.3c-3.6,0-3.6,0.7-3.6,1.4c0,2.9,14.3,7.2,14.3,9.3
		c0,1.4-2.1,0.7-5.7,0C66.7,680.8-33.6,547.5-33.6,397c0-193.5,156.3-349.8,349.8-349.8S665.9,203.5,665.9,397
		C665.9,562.6,544.1,703.8,377.1,732.5z M376.4,648.6c-10,0-19.4,3.6-24.4,3.6c-7.2,0-20.1-7.9-33-7.9c-14.3,0-38.7,5.7-60.2,9.3
		c-21.5,3.6-45.2,8.6-55.9,4.3C95.4,613.5,25.8,511,25.8,397c0-160.6,129.7-290.3,290.3-290.3c160.6,0,290.3,129.7,290.3,290.3
		c0,123.3-78.8,232.2-195.7,272.4C411.5,656.5,395,648.6,376.4,648.6z M615,397c0-164.9-134-298.9-298.9-298.9S17.3,232.1,17.3,397
		c0,116.8,71.7,222.9,182.1,268.8c-12.5,1.1-28.7,1-46.6-3.6C54.7,636.9-7,498.3-4,392C0.1,246.3,128,76.5,316,76.5
		c183.9,0,321.5,162.5,320,320.7c-0.9,101.3-58.9,201.6-147,256.6c-57.3,35.7-113.6,43.7-144.9,45.7c2.5-2.1,6.5-4.8,11.8-7.1
		c3.1-1.3,7-2.5,11.8-3C511.1,664.4,615,541.1,615,397z"/>
</g>
<path d="M159.3,682.7"/>
<path d="M313.4,147.6c-0.6-0.1-1.5-3.3-0.3-5.9c1.9-4.2,8.2-4.9,8.4-4.5c0.1,0.3-2.8,1-5.2,4.1C313.9,144.5,314,147.7,313.4,147.6z"
	/>
<path d="M300.9,310.7c-0.2,0.4-15.7-3.1-29.7-14.9c0,0-1-0.8-1.8-1.6c-25.3-22.7-24-55.9-24-55.9c0.9-22.6,12.8-44.1,31-55.6
	c18.8-11.9,39.5-10.1,39.6-9.5c0.1,0.7-22.6-0.4-41.6,14.5c-21.8,17.1-25,44.5-25.3,47.7c-0.5,5-1.6,16.9,3.7,30.3
	c6,15.3,17.5,25.5,22.3,29.8c0.7,0.7,1.3,1.2,1.4,1.2C288.2,306.9,301,310.4,300.9,310.7z"/>
<path d="M323.7,617.6c0.4,0.3,3.5-2,4.3-5.3c1.1-4.5-2.5-8.9-3-8.7c-0.4,0.2,1.8,3.9,0.7,8.8C325.1,615.5,323.4,617.3,323.7,617.6z"
	/>
<path d="M346.1,503.3c0.3,21.8,1.5,39,2.7,51.1c0.3,3,0.9,8.9,1.5,8.9c1.1,0,0.7-18.9,3.5-46.8c0.5-5.6,1.1-10.2,1.5-13.3
	c-0.6,0-1.6,0-2.8,0.1c-1.7,0-2.1,0.1-2.6,0.1C349,503.3,347.7,503.3,346.1,503.3z"/>
<g>
	<line x1="320.4" y1="528" x2="320.4" y2="175.3"/>
	<path d="M320.4,528c0,0-0.3-5.5-0.8-15.2c-0.2-4.8-0.5-10.7-0.8-17.4c-0.1-3.4-0.3-6.9-0.4-10.7c-0.2-3.8,0-7.7,0-11.9
		c0-33.1,0-77.1,0-121.2s0-88.2,0-121.2c0-2.1,0-4.1,0-6.1c0-2,0-3.9,0.1-5.8c0.2-3.8,0.3-7.3,0.5-10.7c0.3-6.7,0.5-12.6,0.8-17.4
		c0.2-4.8,0.4-8.6,0.5-11.2c0.1-2.6,0.2-4,0.2-4s0.1,1.4,0.2,4c0.1,2.6,0.3,6.4,0.5,11.2c0.2,4.8,0.5,10.7,0.8,17.4
		c0.1,3.4,0.3,6.9,0.5,10.7c0.1,1.9,0.1,3.8,0.1,5.8c0,2,0,4,0,6.1c0,33.1,0,77.1,0,121.2s0,88.2,0,121.2c-0.1,4.1,0.1,8.1,0,11.9
		c-0.2,3.8-0.3,7.3-0.4,10.7c-0.3,6.7-0.6,12.6-0.8,17.4C320.7,522.5,320.4,528,320.4,528z"/>
</g>
</svg>
